<svg id="Layer_3" enable-background="new 0 0 64 64" height="512" viewBox="0 0 64 64" width="512" xmlns="http://www.w3.org/2000/svg"><g><path d="m32 2 30 22h-60z" fill="#4472b2"/><path d="m4 24h6v38h-6z" fill="#fadfb2"/><path d="m54 24h6v38h-6z" fill="#fadfb2"/><path d="m10 24h44v38h-44z" fill="#f5cf88"/><path d="m29 24h6v38h-6z" fill="#fadfb2"/><g fill="#ebf7fe"><path d="m14 28h11v6h-11z"/><path d="m14 38h11v6h-11z"/><path d="m14 48h11v6h-11z"/><path d="m39 28h11v6h-11z"/><path d="m39 38h11v6h-11z"/><path d="m39 48h11v6h-11z"/></g><path d="m1 61h62v2h-62z" fill="#4d5d7a"/><path d="m31 18.816v2.184h2v-2.184c1.161-.414 2-1.514 2-2.816v-1c0-1.654-1.346-3-3-3-.552 0-1-.449-1-1v-1c0-.551.448-1 1-1s1 .449 1 1v1h2v-1c0-1.302-.839-2.402-2-2.816v-2.184h-2v2.184c-1.161.414-2 1.514-2 2.816v1c0 1.654 1.346 3 3 3 .552 0 1 .449 1 1v1c0 .551-.448 1-1 1s-1-.449-1-1v-1h-2v1c0 1.302.839 2.402 2 2.816z" fill="#fff"/></g></svg>