<svg id="Layer_3" enable-background="new 0 0 64 64" height="512" viewBox="0 0 64 64" width="512" xmlns="http://www.w3.org/2000/svg"><g><g><path d="m55 52h-10v10h-36v-60h46z" fill="#c7e2fc"/></g><g><path d="m9 51.807c1.15.125 2.317.193 3.5.193 17.949 0 32.5-14.775 32.5-33 0-6.219-1.697-12.035-4.642-17h-31.358z" fill="#ebf7fe"/></g><g><circle cx="25" cy="40" fill="#f5b953" r="12"/></g><g><path d="m25 28v12h12c0-6.627-5.373-12-12-12z" fill="#3d98f7"/></g><g><path d="m25 52c6.627 0 12-5.373 12-12h-12z" fill="#e47c6e"/></g><g><path d="m24 24v-6h-8v6" fill="#669e4f"/></g><g><path d="m36 24v-12h-8v12" fill="#669e4f"/></g><g><path d="m48 24v-18h-8v18" fill="#669e4f"/></g><g><path d="m55 52h-10v10" fill="#8892a0"/></g><g><path d="m45 63h-36c-.552 0-1-.447-1-1v-60c0-.553.448-1 1-1h46c.552 0 1 .447 1 1v50c0 .553-.448 1-1 1h-9v9c0 .553-.448 1-1 1zm-35-2h34v-9c0-.553.448-1 1-1h9v-48h-44z"/></g><g><path d="m42.929 56h14.142v2h-14.142z" transform="matrix(.707 -.707 .707 .707 -25.66 52.05)"/></g><g><path d="m25 53c-7.168 0-13-5.832-13-13s5.832-13 13-13 13 5.832 13 13-5.832 13-13 13zm0-24c-6.065 0-11 4.935-11 11s4.935 11 11 11 11-4.935 11-11-4.935-11-11-11z"/></g><g><path d="m24 28h2v24h-2z"/></g><g><path d="m25 39h12v2h-12z"/></g><g><path d="m30.707 35.707-1.414-1.414 6-6c.187-.188.442-.293.707-.293h12v2h-11.586z"/></g><g><path d="m40 32h8v2h-8z"/></g><g><path d="m12 23h40v2h-40z"/></g><g><path d="m25 24h-2v-5h-6v5h-2v-6c0-.553.448-1 1-1h8c.552 0 1 .447 1 1z"/></g><g><path d="m37 24h-2v-11h-6v11h-2v-12c0-.553.448-1 1-1h8c.552 0 1 .447 1 1z"/></g><g><path d="m49 24h-2v-17h-6v17h-2v-18c0-.553.448-1 1-1h8c.552 0 1 .447 1 1z"/></g></g></svg>